<svg xmlns="http://www.w3.org/2000/svg" viewBox="0 0 64 64">
  <rect width="64" height="64" rx="16" fill="#d97706"/>
  <g fill="#fff">
    <ellipse cx="16" cy="27" rx="5" ry="7" transform="rotate(-25 16 27)"/>
    <ellipse cx="26" cy="18" rx="5" ry="7" transform="rotate(-10 26 18)"/>
    <ellipse cx="39" cy="18" rx="5" ry="7" transform="rotate(10 39 18)"/>
    <ellipse cx="49" cy="27" rx="5" ry="7" transform="rotate(25 49 27)"/>
    <path d="M20 38c4-4 5-11 12-11s8 7 12 11c9 10 2 17-6 13-4-2-8-2-12 0-8 4-15-3-6-13Z"/>
  </g>
</svg>
